<?xml version="1.0" encoding="UTF-8" standalone="no"?>
<!-- Created with Inkscape (http://www.inkscape.org/) -->

<svg
   width="210mm"
   height="210mm"
   viewBox="0 0 210 210"
   version="1.1"
   id="svg5"
   inkscape:version="1.1 (c68e22c387, 2021-05-23)"
   sodipodi:docname="info.svg"
   xmlns:inkscape="http://www.inkscape.org/namespaces/inkscape"
   xmlns:sodipodi="http://sodipodi.sourceforge.net/DTD/sodipodi-0.dtd"
   xmlns="http://www.w3.org/2000/svg"
   xmlns:svg="http://www.w3.org/2000/svg">
  <sodipodi:namedview
     id="namedview7"
     pagecolor="#ffffff"
     bordercolor="#666666"
     borderopacity="1.0"
     inkscape:pageshadow="2"
     inkscape:pageopacity="0.0"
     inkscape:pagecheckerboard="0"
     inkscape:document-units="mm"
     showgrid="false"
     inkscape:zoom="1.132623"
     inkscape:cx="151.41843"
     inkscape:cy="325.35097"
     inkscape:window-width="1920"
     inkscape:window-height="1001"
     inkscape:window-x="-9"
     inkscape:window-y="-9"
     inkscape:window-maximized="1"
     inkscape:current-layer="layer1"
     width="210mm">
    <inkscape:grid
       type="xygrid"
       id="grid1423" />
  </sodipodi:namedview>
  <defs
     id="defs2" />
  <g
     inkscape:label="Layer 1"
     inkscape:groupmode="layer"
     id="layer1">
    <path
       style="fill:#e60023;fill-opacity:1;stroke:#e60023;stroke-width:0;stroke-miterlimit:4;stroke-dasharray:none;stroke-opacity:1"
       d=""
       id="path30219"
       transform="scale(0.26458333)" />
    <path
       style="fill:#e60023;fill-opacity:1;stroke:#e60023;stroke-width:0;stroke-miterlimit:4;stroke-dasharray:none;stroke-opacity:1"
       d=""
       id="path31038"
       transform="scale(0.26458333)" />
    <path
       style="fill:none;stroke:#e60023;stroke-width:4.5;stroke-linecap:butt;stroke-linejoin:miter;stroke-miterlimit:4;stroke-dasharray:none;stroke-opacity:1"
       d="M 50.092561,43.937667 V 155.35606 c 1.863496,6.11616 4.720926,11.67739 14.507163,13.37021 h 72.535816 c 6.09298,-1.91156 12.33645,-3.51845 14.50716,-13.37021 V 43.937667 C 149.95181,35.454493 144.18936,32.184286 137.13554,30.56746 H 64.599724 c -7.981171,1.491443 -12.900437,6.760765 -14.507163,14.261553"
       id="path20438"
       sodipodi:nodetypes="ccccccccc" />
    <path
       style="fill:#e60023;fill-opacity:1;stroke:#e60023;stroke-width:0.9;stroke-miterlimit:4;stroke-dasharray:none;stroke-opacity:1"
       id="path25020"
       sodipodi:type="arc"
       sodipodi:cx="125.52913"
       sodipodi:cy="59.885468"
       sodipodi:rx="7.7607431"
       sodipodi:ry="7.0567036"
       sodipodi:start="1.5701698"
       sodipodi:end="1.5568806"
       sodipodi:arc-type="arc"
       sodipodi:open="true"
       d="m 125.53399,66.94217 a 7.7607431,7.0567036 0 0 1 -7.76554,-7.028837 7.7607431,7.0567036 0 0 1 7.70425,-7.084382 7.7607431,7.0567036 0 0 1 7.81674,6.981763 7.7607431,7.0567036 0 0 1 -7.65232,7.130774" />
    <path
       style="fill:#e60023;fill-opacity:1;stroke:#e60023;stroke-width:0.9;stroke-miterlimit:4;stroke-dasharray:none;stroke-opacity:1"
       id="path25063"
       sodipodi:type="arc"
       sodipodi:cx="125.82569"
       sodipodi:cy="78.400429"
       sodipodi:rx="11.210712"
       sodipodi:ry="10.007308"
       sodipodi:start="3.1235349"
       sodipodi:end="0.041768523"
       sodipodi:arc-type="arc"
       sodipodi:open="true"
       d="m 114.61681,78.581128 a 11.210712,10.007308 0 0 1 5.62183,-8.856695 11.210712,10.007308 0 0 1 11.40296,0.12068 11.210712,10.007308 0 0 1 5.38503,8.973185" />
    <path
       style="fill:#e60023;fill-opacity:1;stroke:#e60023;stroke-width:0.9;stroke-miterlimit:4;stroke-dasharray:none;stroke-opacity:1"
       d="m 65.089325,121.99218 c -0.466887,-0.0923 -1.151541,-0.41147 -1.497139,-0.69766 -0.599156,-0.4961 -0.903891,-1.13056 -0.903891,-1.88192 0,-1.1949 0.765013,-2.07707 2.214278,-2.5534 l 0.320136,-0.10511 20.141929,0.0135 20.141922,0.0135 0.3735,0.11556 c 0.93632,0.28938 1.51044,0.72932 1.89905,1.45491 l 0.23519,0.43913 v 0.64561 0.64561 l -0.20178,0.37631 c -0.45467,0.84787 -1.3573,1.43803 -2.38596,1.55999 -0.25094,0.0303 -7.781717,0.0465 -20.195283,0.0451 -16.732156,-0.002 -19.848782,-0.0135 -20.14193,-0.0711 z m 41.777825,-1.79261 c 0.0314,-0.0542 0.045,-0.0984 0.0303,-0.0984 -0.0146,0 -0.0524,0.0441 -0.0838,0.0984 -0.0314,0.0542 -0.045,0.0984 -0.0303,0.0984 0.0146,0 0.0524,-0.0441 0.0838,-0.0984 z"
       id="path31311" />
    <path
       style="fill:#e60023;fill-opacity:1;stroke:#e60023;stroke-width:0.9;stroke-miterlimit:4;stroke-dasharray:none;stroke-opacity:1"
       d="m 65.391227,135.59787 c -0.466886,-0.0923 -1.15154,-0.41147 -1.497139,-0.69762 -0.599155,-0.4961 -0.903891,-1.13056 -0.903891,-1.88192 0,-1.19494 0.765013,-2.07711 2.214279,-2.55344 l 0.320135,-0.10511 20.14193,0.0135 20.141909,0.0135 0.3735,0.11556 c 0.93632,0.28938 1.51047,0.72936 1.89907,1.45494 l 0.23503,0.43914 v 0.64557 0.64561 l -0.20177,0.37634 c -0.45469,0.84788 -1.3573,1.43804 -2.38596,1.55996 -0.25112,0.0303 -7.781721,0.0465 -20.195287,0.0451 -16.732155,-0.002 -19.848782,-0.0135 -20.14193,-0.0711 z m 41.777813,-1.79257 c 0.0329,-0.0542 0.045,-0.0984 0.0293,-0.0984 -0.0146,0 -0.0523,0.0445 -0.0837,0.0984 -0.0329,0.0542 -0.045,0.0984 -0.0292,0.0984 0.0146,0 0.0523,-0.0441 0.0837,-0.0984 z"
       id="path31750" />
    <path
       style="fill:#e60023;fill-opacity:1;stroke:#e60023;stroke-width:0.9;stroke-miterlimit:4;stroke-dasharray:none;stroke-opacity:1"
       d="m 63.219856,78.956069 c -0.466887,-0.09231 -1.151541,-0.411474 -1.49714,-0.697626 -0.599155,-0.4961 -0.903891,-1.130559 -0.903891,-1.881918 0,-1.194939 0.765014,-2.077111 2.214279,-2.553436 l 0.320135,-0.105109 20.14193,0.01348 20.141931,0.01347 0.37349,0.115553 c 0.93632,0.289386 1.51044,0.72936 1.89905,1.454947 l 0.23519,0.439099 v 0.645611 0.64561 l -0.20178,0.376337 c -0.45467,0.847877 -1.3573,1.438036 -2.38596,1.559955 -0.25094,0.03032 -7.781716,0.04649 -20.195283,0.04514 -16.732155,-0.0018 -19.848782,-0.01347 -20.14193,-0.07108 z m 41.777824,-1.792576 c 0.0314,-0.05424 0.045,-0.09837 0.0303,-0.09837 -0.0146,0 -0.0524,0.04413 -0.0838,0.09837 -0.0314,0.05424 -0.045,0.09837 -0.0303,0.09837 0.0146,0 0.0524,-0.04447 0.0838,-0.09837 z"
       id="path31752" />
    <path
       style="fill:#e60023;fill-opacity:1;stroke:#e60023;stroke-width:0.9;stroke-miterlimit:4;stroke-dasharray:none;stroke-opacity:1"
       d="m 63.50385,92.575808 c -0.428406,-0.0886 -1.056629,-0.396247 -1.373745,-0.671787 -0.549772,-0.477773 -0.829391,-1.088785 -0.829391,-1.812317 0,-1.150739 0.701962,-2.000268 2.031774,-2.458939 l 0.293744,-0.101403 18.481817,0.01011 18.481811,0.01011 0.34269,0.111509 c 0.85915,0.278606 1.38595,0.702376 1.74253,1.401114 l 0.21582,0.422861 v 0.621725 0.621725 l -0.18515,0.362356 c -0.4172,0.816513 -1.24543,1.384808 -2.18931,1.502213 -0.23028,0.03032 -7.140338,0.04481 -18.530769,0.0438 -15.35308,-0.0017 -18.212831,-0.01011 -18.481817,-0.06873 z m 38.33446,-1.726277 c 0.0289,-0.05222 0.0413,-0.09466 0.0281,-0.09466 -0.0132,0 -0.0481,0.04245 -0.0769,0.09466 -0.0289,0.05222 -0.0413,0.09467 -0.0282,0.09467 0.0132,0 0.0481,-0.04278 0.0769,-0.09467 z"
       id="path31969" />
    <rect
       style="fill:#e60023;fill-opacity:1;stroke:#e60023;stroke-width:0.9;stroke-miterlimit:4;stroke-dasharray:none;stroke-opacity:1"
       id="rect32366"
       width="8.3255024"
       height="7.2795277"
       x="129.65065"
       y="130.30441" />
    <rect
       style="fill:#e60023;fill-opacity:1;stroke:#e60023;stroke-width:0.9;stroke-miterlimit:4;stroke-dasharray:none;stroke-opacity:1"
       id="rect32448"
       width="8.3255024"
       height="7.2795277"
       x="129.43716"
       y="115.94204" />
    <rect
       style="fill:#e60023;fill-opacity:1;stroke:#e60023;stroke-width:0.9;stroke-miterlimit:4;stroke-dasharray:none;stroke-opacity:1"
       id="rect32450"
       width="8.3255024"
       height="7.2795277"
       x="129.86411"
       y="144.47" />
    <path
       style="fill:#e60023;fill-opacity:1;stroke:#e60023;stroke-width:0.9;stroke-miterlimit:4;stroke-dasharray:none;stroke-opacity:1"
       d="m 63.98458,107.62927 c -0.355848,-0.0852 -0.877656,-0.38102 -1.141057,-0.64595 -0.456652,-0.45934 -0.688905,-1.04684 -0.688905,-1.74251 0,-1.10644 0.583057,-1.92326 1.687626,-2.36428 l 0.243995,-0.0974 15.351318,0.0101 15.351315,0.0101 0.284642,0.10713 c 0.713626,0.26782 1.151197,0.67536 1.447379,1.34718 l 0.179258,0.40658 v 0.59774 0.59781 l -0.15378,0.34841 c -0.346527,0.78505 -1.034475,1.33148 -1.818481,1.44437 -0.191248,0.0303 -5.930891,0.0431 -15.391981,0.0421 -12.75253,-0.002 -15.127892,-0.0101 -15.351314,-0.066 z m 31.84127,-1.65981 c 0.02413,-0.0502 0.03436,-0.091 0.02339,-0.091 -0.01097,0 -0.03995,0.0408 -0.06386,0.091 -0.02413,0.0502 -0.03436,0.091 -0.0234,0.091 0.01097,0 0.03995,-0.0411 0.06386,-0.091 z"
       id="path32452" />
    <path
       style="fill:#e60023;fill-opacity:1;stroke:#e60023;stroke-width:0.9;stroke-miterlimit:4;stroke-dasharray:none;stroke-opacity:1"
       d="m 63.043375,66.747995 c -0.355848,-0.08523 -0.877656,-0.381019 -1.141057,-0.645947 -0.456652,-0.459346 -0.688905,-1.046843 -0.688905,-1.742515 0,-1.106438 0.583057,-1.923255 1.687627,-2.364273 l 0.243994,-0.09736 15.351319,0.01011 15.351314,0.01011 0.284642,0.107131 c 0.713626,0.267825 1.151197,0.675357 1.447379,1.347177 l 0.179258,0.406589 v 0.597739 0.597806 l -0.15378,0.348409 c -0.346527,0.785048 -1.034475,1.331479 -1.818481,1.44437 -0.191248,0.03032 -5.93089,0.04312 -15.39198,0.04211 -12.752531,-0.0016 -15.127893,-0.01011 -15.351315,-0.06603 z m 31.841271,-1.659809 c 0.02412,-0.0502 0.03436,-0.09096 0.02339,-0.09096 -0.01097,0 -0.03995,0.04076 -0.06386,0.09096 -0.02413,0.0502 -0.03436,0.09096 -0.02339,0.09096 0.01097,0 0.03995,-0.0411 0.06386,-0.09096 z"
       id="path32454" />
    <path
       style="fill:#e60023;fill-opacity:1;stroke:#e60023;stroke-width:0.9;stroke-miterlimit:4;stroke-dasharray:none;stroke-opacity:1"
       d="m 65.905849,150.3227 c -0.355848,-0.0852 -0.877656,-0.38102 -1.141057,-0.64595 -0.456652,-0.45934 -0.688905,-1.04684 -0.688905,-1.74251 0,-1.10644 0.583057,-1.92325 1.687627,-2.36427 l 0.243994,-0.0974 15.351318,0.0101 15.351315,0.0101 0.284642,0.10713 c 0.713626,0.26782 1.151197,0.67536 1.447379,1.34718 l 0.179258,0.40659 v 0.59773 0.59781 l -0.15378,0.34841 c -0.346527,0.78505 -1.034475,1.33148 -1.818481,1.44437 -0.191248,0.0303 -5.93089,0.0431 -15.39198,0.0421 -12.752531,-0.002 -15.127893,-0.0101 -15.351315,-0.066 z m 31.841271,-1.65981 c 0.02412,-0.0502 0.03436,-0.091 0.02339,-0.091 -0.01097,0 -0.03995,0.0408 -0.06386,0.091 -0.02412,0.0502 -0.03436,0.091 -0.02339,0.091 0.01097,0 0.03995,-0.0411 0.06386,-0.091 z"
       id="path32456" />
  </g>
</svg>
