<?xml version="1.0" encoding="UTF-8" standalone="no"?>
<!-- Created with Inkscape (http://www.inkscape.org/) -->

<svg
   width="210mm"
   height="210mm"
   viewBox="0 0 210 210"
   version="1.1"
   id="svg5"
   inkscape:version="1.1 (c68e22c387, 2021-05-23)"
   sodipodi:docname="lock.svg"
   xmlns:inkscape="http://www.inkscape.org/namespaces/inkscape"
   xmlns:sodipodi="http://sodipodi.sourceforge.net/DTD/sodipodi-0.dtd"
   xmlns="http://www.w3.org/2000/svg"
   xmlns:svg="http://www.w3.org/2000/svg">
  <sodipodi:namedview
     id="namedview7"
     pagecolor="#ffffff"
     bordercolor="#666666"
     borderopacity="1.0"
     inkscape:pageshadow="2"
     inkscape:pageopacity="0.0"
     inkscape:pagecheckerboard="0"
     inkscape:document-units="mm"
     showgrid="true"
     inkscape:zoom="0.56631152"
     inkscape:cx="431.74118"
     inkscape:cy="467.05743"
     inkscape:window-width="1920"
     inkscape:window-height="1001"
     inkscape:window-x="-9"
     inkscape:window-y="-9"
     inkscape:window-maximized="1"
     inkscape:current-layer="layer1"
     width="210mm">
    <inkscape:grid
       type="xygrid"
       id="grid1423" />
  </sodipodi:namedview>
  <defs
     id="defs2" />
  <g
     inkscape:label="Layer 1"
     inkscape:groupmode="layer"
     id="layer1">
    <g
       id="g12355"
       transform="matrix(0.80091188,0,0,0.80567378,1.1789616,-10.727701)">
      <path
         style="fill:#e60023;fill-opacity:1;stroke:#e60023;stroke-opacity:0.996078"
         id="path31"
         sodipodi:type="arc"
         sodipodi:cx="130.66902"
         sodipodi:cy="151.24323"
         sodipodi:rx="33.010159"
         sodipodi:ry="33.101601"
         sodipodi:start="1.5701698"
         sodipodi:end="1.5690632"
         sodipodi:arc-type="slice"
         d="m 130.6897,184.34482 a 33.010159,33.101601 0 0 1 -33.030823,-33.0717 33.010159,33.101601 0 0 1 32.971203,-33.13147 33.010159,33.101601 0 0 1 33.04907,33.05336 33.010159,33.101601 0 0 1 -32.95292,33.14977 l -0.0572,-33.10155 z" />
      <path
         style="fill:#e60023;fill-opacity:1;stroke:#e60023;stroke-width:0.220727;stroke-opacity:1"
         d=""
         id="path6684"
         transform="scale(0.26458333)" />
      <path
         style="fill:#e60023;fill-opacity:1;stroke:#e60023;stroke-width:0.0584007;stroke-opacity:1"
         d="m 107.91527,117.38825 c 0.0161,-8.93492 0.0428,-12.92928 0.0891,-13.35914 0.69804,-6.478436 2.92394,-11.573118 6.80495,-15.575274 2.6033,-2.684566 5.62411,-4.576353 9.1478,-5.728835 2.55043,-0.83416 4.8433,-1.169763 7.53367,-1.102686 2.39686,0.05976 4.29372,0.394814 6.50666,1.149313 2.94425,1.00384 5.48714,2.568152 7.73595,4.758926 3.34238,3.256131 5.59625,7.576095 6.65781,12.760926 0.3983,1.94539 0.70443,4.79695 0.70689,6.58466 7.9e-4,0.61838 -0.006,0.65701 -0.1159,0.65701 -0.10795,0 -0.11776,-0.0431 -0.12945,-0.5694 -0.008,-0.35171 -0.0245,-0.14518 -0.0438,0.5402 l -0.0312,1.10961 0.1314,0.0185 c 0.0883,0.0124 0.1314,0.0584 0.1314,0.14006 0,0.11638 -0.0206,0.11997 -0.4818,0.0841 -0.26499,-0.0206 -0.89222,-0.0377 -1.39383,-0.0379 l -0.91202,-2.7e-4 -0.039,-1.03661 c -0.0214,-0.57013 -0.0654,-1.40453 -0.0977,-1.85421 -0.45892,-6.390291 -2.4053,-11.617124 -5.74543,-15.428839 -2.98011,-3.400853 -6.6639,-5.405614 -11.15724,-6.071896 -1.00762,-0.149413 -3.79452,-0.149887 -4.78885,-7.94e-4 -3.59431,0.538859 -6.65049,1.865797 -9.42987,4.094276 -0.87878,0.704588 -2.23955,2.048995 -2.93674,2.901416 -3.21396,3.929552 -5.09512,9.188737 -5.35542,14.972247 -0.0304,0.67497 -0.0723,6.2599 -0.0932,12.41094 -0.0253,7.46799 -0.0578,11.20796 -0.0976,11.25671 -0.0444,0.0544 -0.38638,0.073 -1.33964,0.073 h -1.28 z m 0.259,-7.03727 c -0.009,-0.63438 -0.0171,-0.11534 -0.0171,1.15341 0,1.26875 0.008,1.78779 0.0171,1.15341 0.009,-0.63437 0.009,-1.67245 0,-2.30682 z m 44.61724,-4.96405 c -0.012,-0.15258 -0.0219,-0.0277 -0.0219,0.2774 0,0.30515 0.01,0.42998 0.0219,0.27741 0.012,-0.15258 0.012,-0.40224 0,-0.55481 z m -44.56032,-0.0876 c -0.013,-0.1044 -0.0236,-0.019 -0.0236,0.1898 0,0.20878 0.0106,0.2942 0.0236,0.1898 0.013,-0.10439 0.013,-0.27521 0,-0.3796 z m 44.5002,-0.87602 c -0.0139,-0.0723 -0.0253,-0.0132 -0.0253,0.13141 0,0.14454 0.0114,0.20367 0.0253,0.1314 0.0139,-0.0723 0.0139,-0.19053 0,-0.26281 z m -44.26895,-1.92356 c -0.0186,-0.0466 -0.0325,-0.0328 -0.0353,0.0353 -0.003,0.0616 0.0113,0.0961 0.0307,0.0767 0.0194,-0.0194 0.0215,-0.0698 0.005,-0.11194 z m 0.11558,-0.76286 c -0.0162,-0.0401 -0.0294,-0.007 -0.0294,0.073 0,0.0803 0.0132,0.11315 0.0294,0.073 0.0162,-0.0401 0.0162,-0.10585 0,-0.146 z m 0.0584,-0.292 c -0.0162,-0.0401 -0.0295,-0.007 -0.0295,0.073 0,0.0803 0.0133,0.11315 0.0295,0.073 0.0162,-0.0401 0.0162,-0.10585 0,-0.146 z m 0.0584,-0.35041 c -0.0162,-0.0402 -0.0294,-0.007 -0.0294,0.073 0,0.0803 0.0132,0.11316 0.0294,0.073 0.0162,-0.0402 0.0162,-0.10585 0,-0.146 z m 0.0596,-0.22995 c -0.0186,-0.0466 -0.0325,-0.0328 -0.0353,0.0353 -0.003,0.0616 0.0113,0.096 0.0307,0.0767 0.0194,-0.0194 0.0215,-0.0698 0.005,-0.11193 z m 43.50843,0 c -0.0187,-0.0466 -0.0325,-0.0328 -0.0353,0.0353 -0.003,0.0616 0.0113,0.096 0.0307,0.0767 0.0194,-0.0194 0.0215,-0.0698 0.005,-0.11193 z m -43.45001,-0.292 c -0.0187,-0.0466 -0.0325,-0.0328 -0.0353,0.0353 -0.003,0.0616 0.0113,0.0961 0.0307,0.0767 0.0194,-0.0194 0.0215,-0.0698 0.005,-0.11193 z m 43.39163,0 c -0.0186,-0.0466 -0.0325,-0.0328 -0.0353,0.0353 -0.003,0.0616 0.0113,0.0961 0.0307,0.0767 0.0194,-0.0194 0.0215,-0.0698 0.005,-0.11193 z m -0.0584,-0.29201 c -0.0187,-0.0466 -0.0325,-0.0327 -0.0353,0.0353 -0.003,0.0616 0.0113,0.096 0.0307,0.0767 0.0194,-0.0194 0.0215,-0.0698 0.005,-0.11194 z m -0.0584,-0.291997 c -0.0187,-0.04659 -0.0325,-0.03275 -0.0353,0.03529 -0.003,0.0616 0.0113,0.0961 0.0307,0.0767 0.0194,-0.0194 0.0215,-0.0698 0.005,-0.111911 z m -0.0584,-0.233603 c -0.0187,-0.04659 -0.0325,-0.03275 -0.0353,0.03529 -0.003,0.06156 0.0113,0.09606 0.0307,0.07665 0.0194,-0.01939 0.0215,-0.06978 0.005,-0.111935 z m -0.1168,-0.525603 c -0.0187,-0.04659 -0.0325,-0.03275 -0.0353,0.03528 -0.003,0.06156 0.0113,0.09606 0.0307,0.07665 0.0194,-0.01942 0.0215,-0.06978 0.005,-0.111935 z m -0.23361,-0.876009 c -0.0186,-0.04659 -0.0325,-0.03275 -0.0353,0.03528 -0.003,0.06156 0.0113,0.09606 0.0307,0.07665 0.0194,-0.01942 0.0215,-0.06978 0.005,-0.111935 z m -0.1168,-0.408805 c -0.0187,-0.04659 -0.0325,-0.03275 -0.0353,0.03529 -0.003,0.06156 0.0113,0.09606 0.0307,0.07665 0.0194,-0.01939 0.0215,-0.06978 0.005,-0.111935 z m -0.38317,-1.19648 c -0.0688,-0.11839 -0.0855,-0.0805 -0.0291,0.06636 0.02,0.05219 0.0487,0.08259 0.0637,0.06756 0.015,-0.01503 -5.3e-4,-0.0753 -0.0346,-0.13392 z M 109.99757,96.58304 c 0,-0.03212 -0.0255,-0.01897 -0.0566,0.0292 -0.0311,0.04818 -0.0566,0.113879 -0.0566,0.145999 0,0.03212 0.0255,0.01897 0.0566,-0.0292 0.0311,-0.04818 0.0566,-0.113882 0.0566,-0.146002 z m 0.11681,-0.292003 c 0,-0.03212 -0.0255,-0.01897 -0.0566,0.0292 -0.0311,0.04818 -0.0566,0.113882 -0.0566,0.146002 0,0.03212 0.0255,0.01897 0.0566,-0.0292 0.0311,-0.04818 0.0566,-0.113882 0.0566,-0.146002 z m 0.1168,-0.292002 c 0,-0.03212 -0.0255,-0.01897 -0.0566,0.0292 -0.0311,0.04818 -0.0566,0.113882 -0.0566,0.146002 0,0.03212 0.0255,0.01897 0.0566,-0.0292 0.0311,-0.04818 0.0566,-0.113879 0.0566,-0.146 z m 0.3324,-0.827667 c -0.0245,-0.02445 -0.33318,0.665668 -0.32629,0.729314 0.002,0.02199 0.0817,-0.128167 0.17634,-0.333645 0.0946,-0.205478 0.16209,-0.38353 0.14995,-0.395669 z m 40.20651,0.467043 c -0.0688,-0.118391 -0.0855,-0.0805 -0.0291,0.06636 0.02,0.05219 0.0487,0.08259 0.0638,0.06756 0.015,-0.01503 -5.3e-4,-0.0753 -0.0346,-0.133919 z m -0.1168,-0.292002 c -0.0688,-0.118391 -0.0855,-0.0805 -0.0291,0.06636 0.02,0.05219 0.0487,0.08259 0.0638,0.06756 0.015,-0.01503 -5.3e-4,-0.0753 -0.0346,-0.133919 z m -0.14622,-0.349621 c -0.0494,-0.09117 -0.0909,-0.147291 -0.0922,-0.124711 -0.004,0.06942 0.13191,0.340566 0.15772,0.314759 0.0134,-0.01336 -0.0161,-0.09888 -0.0656,-0.190048 z M 111.37482,93.52979 c -0.0243,-0.02434 -0.73385,1.362028 -0.73091,1.428216 10e-4,0.02652 0.17051,-0.279585 0.37629,-0.680233 0.20578,-0.400648 0.36536,-0.737241 0.35462,-0.747983 z m 38.92774,1.000141 c -0.0651,-0.123484 -0.11961,-0.205695 -0.12102,-0.182695 -0.004,0.06716 0.19126,0.455406 0.21651,0.430165 0.0126,-0.01262 -0.0303,-0.123989 -0.0955,-0.24747 z m -0.70516,-1.431353 c -0.78697,-1.456259 -1.68275,-2.794728 -2.59271,-3.874011 -0.47432,-0.562584 -1.77438,-1.870512 -2.34459,-2.358784 -0.68466,-0.58628 -1.08041,-0.903804 -1.08041,-0.86686 0,0.01633 0.19053,0.183306 0.4234,0.371099 1.11931,0.902632 2.42221,2.223254 3.39132,3.437443 0.65903,0.825699 1.62428,2.311368 2.17134,3.342029 0.25696,0.484119 0.47733,0.870799 0.48971,0.85929 0.0124,-0.01151 -0.19374,-0.421103 -0.45806,-0.910206 z m -38.05042,0.18483 c 0.0498,-0.09636 0.0775,-0.175202 0.0614,-0.175202 -0.0161,0 -0.07,0.07884 -0.1198,0.175202 -0.0498,0.09636 -0.0775,0.175201 -0.0614,0.175201 0.0161,0 0.07,-0.07884 0.1198,-0.175201 z m 0.2044,-0.350404 c 0.0344,-0.06424 0.0494,-0.1168 0.0333,-0.1168 -0.0161,0 -0.0573,0.05256 -0.0917,0.1168 -0.0344,0.06424 -0.0494,0.1168 -0.0333,0.1168 0.0161,0 0.0573,-0.05256 0.0917,-0.1168 z m 0.1752,-0.292002 c 0.0344,-0.06424 0.0494,-0.1168 0.0333,-0.1168 -0.0161,0 -0.0573,0.05256 -0.0917,0.1168 -0.0344,0.06424 -0.0494,0.1168 -0.0333,0.1168 0.0161,0 0.0573,-0.05256 0.0917,-0.1168 z m 0.37823,-0.609349 0.0987,-0.179059 -0.11543,0.142145 c -0.0635,0.07818 -0.15985,0.222721 -0.21414,0.321201 l -0.0987,0.17906 0.11542,-0.142145 c 0.0635,-0.07818 0.15986,-0.222719 0.21415,-0.321202 z m 0.43938,-0.646263 c 0.0994,-0.144542 0.16767,-0.262803 0.15161,-0.262803 -0.0161,0 -0.11056,0.118261 -0.21001,0.262803 -0.0995,0.144542 -0.16768,0.262803 -0.15162,0.262803 0.0161,0 0.11057,-0.118261 0.21002,-0.262803 z m 0.38327,-0.535601 c 0.0899,-0.117917 0.1337,-0.195964 0.0972,-0.173435 -0.0748,0.04621 -0.3276,0.387832 -0.28703,0.387832 0.0144,0 0.0998,-0.09648 0.18978,-0.214397 z m 31.91225,0.01714 c 0,-0.01212 -0.046,-0.05812 -0.10221,-0.102201 -0.0926,-0.07264 -0.0947,-0.07058 -0.022,0.02204 0.0763,0.09728 0.12425,0.128217 0.12425,0.08015 z m -31.64567,-0.372148 c 0.0726,-0.09263 0.0706,-0.09469 -0.022,-0.02204 -0.0562,0.04408 -0.1022,0.09007 -0.1022,0.1022 0,0.04807 0.048,0.01712 0.12425,-0.08015 z m 0.19696,-0.248203 c 0.0581,-0.06424 0.0926,-0.1168 0.0765,-0.1168 -0.0161,0 -0.0768,0.05256 -0.1349,0.1168 -0.0581,0.06424 -0.0926,0.116801 -0.0765,0.116801 0.0161,0 0.0768,-0.05256 0.13491,-0.116801 z m 0.2628,-0.321204 c 0.0754,-0.0803 0.12402,-0.146 0.10796,-0.146 -0.0161,0 -0.0909,0.0657 -0.16636,0.146 -0.0754,0.0803 -0.12402,0.146003 -0.10796,0.146003 0.0161,0 0.0909,-0.0657 0.16636,-0.146003 z m 2.56287,-2.612874 c 1.82532,-1.576168 4.15108,-2.98664 6.3152,-3.829883 0.43297,-0.168709 0.83978,-0.332209 0.90403,-0.363334 0.26135,-0.12663 -0.19076,0.02214 -0.84681,0.278654 -2.01835,0.789151 -3.9358,1.902801 -5.77274,3.352794 -0.66911,0.528162 -2.14047,1.931805 -2.71562,2.590639 -0.19628,0.22484 0.06,-0.01921 0.56955,-0.542367 0.50954,-0.523142 1.20542,-1.192069 1.54639,-1.486503 z m 27.10462,-1.351214 c 0,-0.01212 -0.046,-0.05812 -0.1022,-0.1022 -0.0926,-0.07264 -0.0947,-0.07058 -0.022,0.02204 0.0763,0.09728 0.12425,0.128217 0.12425,0.08015 z m -0.58401,-0.408802 c 0,-0.01212 -0.046,-0.05812 -0.1022,-0.102201 -0.0926,-0.07264 -0.0947,-0.07058 -0.022,0.02204 0.0763,0.09728 0.12425,0.128217 0.12425,0.08015 z m -0.4964,-0.363691 c -0.14959,-0.115295 -0.3212,-0.209786 -0.3212,-0.176856 0,0.02968 0.36546,0.269047 0.4088,0.267751 0.0161,-5.29e-4 -0.0234,-0.04138 -0.0876,-0.0909 z m -0.3796,-0.225412 c 0,-0.01492 -0.0591,-0.0558 -0.13141,-0.09082 -0.12618,-0.06115 -0.12689,-0.06007 -0.018,0.02715 0.11915,0.09546 0.14944,0.108365 0.14944,0.06368 z m -0.29201,-0.175202 c 0,-0.01492 -0.0591,-0.0558 -0.1314,-0.09082 -0.12618,-0.06115 -0.1269,-0.06007 -0.018,0.02715 0.11915,0.09546 0.14943,0.108368 0.14943,0.06368 z m -0.292,-0.176069 c 0,-0.0154 -0.10512,-0.08164 -0.2336,-0.147188 -0.12848,-0.06555 -0.23361,-0.10613 -0.23361,-0.09018 0,0.01595 0.0986,0.08102 0.21901,0.144608 0.24779,0.130812 0.2482,0.130966 0.2482,0.09276 z m -0.75921,-0.408805 c 0,-0.03541 -0.44666,-0.264899 -0.50868,-0.261351 -0.0254,0.0013 0.0721,0.06597 0.21668,0.143365 0.29443,0.157655 0.292,0.156676 0.292,0.117986 z m -0.99281,-0.497592 c -0.11242,-0.06155 -0.23068,-0.111905 -0.2628,-0.111905 -0.0321,0 0.0336,0.05036 0.146,0.111905 0.11242,0.06155 0.23068,0.111906 0.2628,0.111906 0.0321,0 -0.0336,-0.05036 -0.146,-0.111906 z m -0.6132,-0.259514 c -0.31091,-0.141761 -0.60315,-0.242496 -0.55481,-0.191238 0.0428,0.04539 0.71993,0.323723 0.78841,0.324078 0.0321,1.69e-4 -0.073,-0.05961 -0.2336,-0.13284 z M 138.49884,83.2148 c 0,-0.0354 -0.54171,-0.213251 -0.56836,-0.186605 -0.0126,0.01262 0.0904,0.06303 0.22891,0.112019 0.273,0.09655 0.33945,0.111154 0.33945,0.07459 z M 124.0155,83.004906 c 0.10675,-0.06899 0.0145,-0.06899 -0.146,0 -0.077,0.0331 -0.087,0.05129 -0.0292,0.0534 0.0482,0.0019 0.12702,-0.02225 0.1752,-0.0534 z m 0.5548,-0.175202 c 0.0736,-0.03164 0.0844,-0.05019 0.0292,-0.05019 -0.0482,0 -0.14017,0.02259 -0.20441,0.05019 -0.0736,0.03164 -0.0844,0.05019 -0.0292,0.05019 0.0482,0 0.14016,-0.0226 0.2044,-0.05019 z m 12.67293,-0.0584 c -0.0642,-0.02761 -0.15622,-0.05019 -0.2044,-0.05019 -0.0552,0 -0.0444,0.01855 0.0292,0.05019 0.0642,0.0276 0.15622,0.05019 0.2044,0.05019 0.0552,0 0.0444,-0.01855 -0.0292,-0.05019 z m -12.19234,-0.09368 c -0.0194,-0.01942 -0.0698,-0.02148 -0.11193,-0.0046 -0.0466,0.01865 -0.0327,0.03248 0.0353,0.03528 0.0616,0.0026 0.0961,-0.01127 0.0767,-0.03067 z m 11.78353,-0.02313 c -0.0642,-0.0276 -0.15622,-0.05019 -0.2044,-0.05019 -0.0552,0 -0.0444,0.01855 0.0292,0.05019 0.0642,0.02761 0.15622,0.05019 0.20441,0.05019 0.0552,0 0.0444,-0.01855 -0.0292,-0.05019 z m -0.33701,-0.09368 c -0.0194,-0.01939 -0.0698,-0.02148 -0.11194,-0.0046 -0.0466,0.01865 -0.0327,0.03248 0.0353,0.03528 0.0616,0.0026 0.0961,-0.01127 0.0767,-0.03067 z m -0.23361,-0.0584 c -0.0194,-0.01942 -0.0698,-0.02148 -0.11193,-0.0046 -0.0466,0.01865 -0.0328,0.03248 0.0353,0.03529 0.0616,0.0026 0.0961,-0.01127 0.0767,-0.03067 z m -0.2336,-0.0584 c -0.0194,-0.01942 -0.0698,-0.02148 -0.11194,-0.0046 -0.0466,0.01865 -0.0327,0.03248 0.0353,0.03528 0.0616,0.0026 0.0961,-0.01127 0.0767,-0.03067 z m -0.2336,-0.0584 c -0.0194,-0.01939 -0.0698,-0.02148 -0.11194,-0.0046 -0.0466,0.01865 -0.0327,0.03248 0.0353,0.03528 0.0616,0.0026 0.0961,-0.01127 0.0767,-0.03067 z m -0.292,-0.0584 c -0.0194,-0.01942 -0.0698,-0.02148 -0.11194,-0.0046 -0.0466,0.01865 -0.0328,0.03248 0.0353,0.03529 0.0616,0.0026 0.0961,-0.01127 0.0767,-0.03067 z m -0.26159,-0.0618 c -0.0402,-0.01619 -0.10585,-0.01619 -0.146,0 -0.0401,0.01619 -0.007,0.02946 0.073,0.02946 0.0803,0 0.11315,-0.01326 0.073,-0.02946 z m -0.292,-0.0584 c -0.0402,-0.01619 -0.10586,-0.01619 -0.14601,0 -0.0402,0.01619 -0.007,0.02946 0.073,0.02946 0.0803,0 0.11316,-0.01326 0.073,-0.02946 z m -0.35041,-0.0584 c -0.0401,-0.01619 -0.10585,-0.01619 -0.146,0 -0.0402,0.01619 -0.007,0.02946 0.073,0.02946 0.0803,0 0.11315,-0.01326 0.073,-0.02946 z m -0.34929,-0.05803 c -0.0395,-0.01601 -0.11838,-0.01696 -0.1752,-0.0021 -0.0568,0.01482 -0.0245,0.0279 0.0719,0.02909 0.0964,0.0011 0.14285,-0.01093 0.10331,-0.02692 z m -6.16359,-0.05538 c -0.0194,-0.01939 -0.0698,-0.02148 -0.11193,-0.0046 -0.0466,0.01865 -0.0327,0.03248 0.0353,0.03528 0.0616,0.0026 0.0961,-0.01127 0.0767,-0.03067 z m 5.81319,-0.003 c -0.0395,-0.01601 -0.11838,-0.01699 -0.17521,-0.0021 -0.0568,0.01482 -0.0245,0.0279 0.0719,0.02909 0.0964,0.0011 0.14286,-0.01093 0.10332,-0.02692 z m -0.49752,-0.06035 c -0.0562,-0.01469 -0.14819,-0.01469 -0.2044,0 -0.0562,0.01468 -0.0102,0.02671 0.1022,0.02671 0.11242,0 0.15841,-0.01201 0.1022,-0.02671 z"
         id="path6762" />
      <circle
         id="path7911"
         style="fill:#ffffff;stroke:#e60023;stroke-width:0.264583"
         cx="92.243698"
         cy="144.77502"
         r="0.0038894499" />
      <circle
         id="path7915"
         style="fill:#e60023;stroke:#e60023;stroke-width:0.264583"
         cx="123.51721"
         cy="149.47627"
         r="0.0038894499" />
      <path
         style="fill:#ffffff;fill-opacity:1;stroke:#ffffff;stroke-width:0.116801;stroke-opacity:1"
         d="m 129.99375,168.7256 v -5.88004 l -1.55285,-1.56603 c -2.39596,-2.41629 -3.43384,-4.13832 -3.55707,-5.9018 -0.084,-1.20239 0.17627,-1.9056 1.01138,-2.73238 0.78279,-0.77499 1.80123,-1.29713 3.2316,-1.65681 1.48575,-0.3736 4.19763,-0.37168 5.70946,0.004 2.82257,0.70148 4.52493,2.24076 4.52493,4.09146 0,1.36194 -0.56679,2.58477 -1.98229,4.27676 -0.66502,0.79491 -2.73612,2.68428 -3.46851,3.16416 l -0.29582,0.19383 v 5.94343 5.94342 h -1.81041 -1.81042 z"
         id="path11994" />
    </g>
  </g>
</svg>
