<?xml version="1.0" encoding="UTF-8" standalone="no"?>
<!-- Created with Inkscape (http://www.inkscape.org/) -->

<svg
   width="210mm"
   height="210mm"
   viewBox="0 0 210 210"
   version="1.1"
   id="svg5"
   inkscape:version="1.1 (c68e22c387, 2021-05-23)"
   sodipodi:docname="rupee.svg"
   xmlns:inkscape="http://www.inkscape.org/namespaces/inkscape"
   xmlns:sodipodi="http://sodipodi.sourceforge.net/DTD/sodipodi-0.dtd"
   xmlns="http://www.w3.org/2000/svg"
   xmlns:svg="http://www.w3.org/2000/svg">
  <sodipodi:namedview
     id="namedview7"
     pagecolor="#ffffff"
     bordercolor="#666666"
     borderopacity="1.0"
     inkscape:pageshadow="2"
     inkscape:pageopacity="0.0"
     inkscape:pagecheckerboard="0"
     inkscape:document-units="mm"
     showgrid="false"
     inkscape:zoom="0.80088543"
     inkscape:cx="154.20433"
     inkscape:cy="482.59087"
     inkscape:window-width="1920"
     inkscape:window-height="1001"
     inkscape:window-x="-9"
     inkscape:window-y="-9"
     inkscape:window-maximized="1"
     inkscape:current-layer="layer1"
     width="210mm">
    <inkscape:grid
       type="xygrid"
       id="grid1423" />
  </sodipodi:namedview>
  <defs
     id="defs2" />
  <g
     inkscape:label="Layer 1"
     inkscape:groupmode="layer"
     id="layer1">
    <g
       id="g34092"
       transform="matrix(0.82061447,0,0,0.83229235,20.932282,19.648359)">
      <path
         style="fill:#e60023;fill-opacity:1;stroke:#e60023;stroke-width:0.068825;stroke-miterlimit:4;stroke-dasharray:none;stroke-opacity:1"
         d=""
         id="path18056"
         transform="scale(0.26458333)" />
      <path
         style="fill:#e60023;stroke:#e60023;stroke-width:2.26772;stroke-miterlimit:4;stroke-dasharray:none"
         id="path33788"
         sodipodi:type="arc"
         sodipodi:cx="105.55115"
         sodipodi:cy="101.25642"
         sodipodi:rx="76.148788"
         sodipodi:ry="75.488068"
         sodipodi:start="1.5701698"
         sodipodi:end="1.5690632"
         sodipodi:arc-type="slice"
         d="m 105.59886,176.74447 a 76.148788,75.488068 0 0 1 -76.19647,-75.41987 76.148788,75.488068 0 0 1 76.05892,-75.556199 76.148788,75.488068 0 0 1 76.23855,75.378069 76.148788,75.488068 0 0 1 -76.01674,75.5979 l -0.13197,-75.48795 z" />
      <path
         style="fill:#ffffff;stroke:#e60023;stroke-width:2.26772;stroke-miterlimit:4;stroke-dasharray:none"
         id="path33870"
         sodipodi:type="arc"
         sodipodi:cx="105.63802"
         sodipodi:cy="101.22482"
         sodipodi:rx="69.740753"
         sodipodi:ry="67.974861"
         sodipodi:start="1.5701698"
         sodipodi:end="1.5510801"
         sodipodi:arc-type="arc"
         d="M 105.68172,169.19967 A 69.740753,67.974861 0 0 1 35.898287,101.59181 69.740753,67.974861 0 0 1 104.92868,33.253478 69.740753,67.974861 0 0 1 175.37099,100.20906 69.740753,67.974861 0 0 1 107.01296,169.18647"
         sodipodi:open="true" />
      <path
         style="fill:#e60023;fill-opacity:1;stroke:#e60023;stroke-width:0.663712;stroke-miterlimit:4;stroke-dasharray:none;stroke-opacity:1"
         d="m 105.15293,140.55488 c -27.265123,-36.0683 -25.028458,-33.08659 -24.905146,-33.2013 0.0483,-0.047 1.603052,-1.20458 3.454706,-2.57691 5.692786,-4.21896 7.996811,-6.04358 10.262759,-8.127239 1.211286,-1.113926 2.563045,-2.536564 2.486628,-2.617034 -0.08245,-0.08697 -9.601482,-0.275034 -18.206591,-0.360442 l -7.737806,-0.07836 v -3.703296 -3.703274 l 6.706085,-8.07e-4 c 9.806952,-0.0011 22.634518,-0.166037 23.403505,-0.300968 l 0.40725,-0.07131 -1e-4,-1.901279 c -1e-4,-3.112955 -0.35332,-6.079164 -0.74979,-6.29774 -0.0953,-0.0525 -2.347956,-0.129758 -5.005961,-0.171836 -3.900465,-0.0619 -22.480442,-0.284827 -24.300447,-0.291958 l -0.462519,-0.0018 0.02831,-5.805896 0.02831,-5.805903 34.996617,-0.02899 34.99662,-0.02899 v 5.820823 5.820829 l -8.44373,0.07052 c -10.89394,0.09082 -20.56815,0.270957 -20.67638,0.384967 -0.0848,0.08933 -0.47739,8.358201 -0.40071,8.438994 0.0224,0.02351 6.67343,0.07961 14.78055,0.124822 l 14.74024,0.08227 v 3.699575 3.699624 l -15.71636,0.03137 -15.71634,0.03137 -0.63271,1.201203 c -1.29424,2.457191 -2.48076,4.142174 -4.14874,5.891635 -2.17892,2.28544 -4.10554,3.67565 -8.902191,6.42361 -0.653009,0.37455 -1.202728,0.7295 -1.221606,0.78921 -0.04236,0.13477 1.996696,3.04401 15.072897,21.5021 11.92093,16.82734 13.81198,19.50424 14.06011,19.90323 l 0.1795,0.28835 -5.74119,-0.005 -5.74119,-0.005 z m 8.68628,7.75387 c 0.22129,-0.0784 0.17614,-0.0932 -0.24435,-0.10271 -0.2837,-0.006 -0.51585,0.0392 -0.51585,0.10271 0,0.13242 0.36776,0.13242 0.7602,0 z m 0.84166,0.0392 c -0.10448,-0.0314 -0.27559,-0.0314 -0.3801,0 -0.10449,0.0314 -0.0193,0.0548 0.19012,0.0548 0.2091,0 0.29456,-0.0236 0.19013,-0.0548 z M 93.001689,99.487819 c 0.135004,-0.18179 0.131287,-0.18571 -0.04095,-0.0392 -0.104489,0.0862 -0.190123,0.17631 -0.190123,0.2006 0,0.094 0.08914,0.0314 0.231033,-0.15672 z m 0.637763,-0.543791 c 0.140288,-0.157498 0.230589,-0.286006 0.200766,-0.286006 -0.02971,0 -0.169074,0.128508 -0.309362,0.286006 -0.140288,0.157501 -0.230589,0.285991 -0.200766,0.285991 0.02972,0 0.169074,-0.12849 0.309362,-0.285991 z m 2.820389,-2.672127 c 1.101461,-1.141342 1.087619,-1.13115 -0.376907,0.275815 -1.84423,1.771335 -2.415237,2.366065 -1.469312,1.53023 0.386492,-0.341632 1.217273,-1.154037 1.846208,-1.805728 z"
         id="path18641" />
    </g>
  </g>
</svg>
