<?xml version="1.0" encoding="UTF-8" standalone="no"?>
<svg
   version="1.0"
   width="1024"
   height="640"
   viewBox="0 0 768 479.99999"
   preserveAspectRatio="xMidYMid meet"
   id="svg8"
   sodipodi:docname="muthoot-og-logo (1).svg"
   inkscape:version="1.1 (c68e22c387, 2021-05-23)"
   xmlns:inkscape="http://www.inkscape.org/namespaces/inkscape"
   xmlns:sodipodi="http://sodipodi.sourceforge.net/DTD/sodipodi-0.dtd"
   xmlns="http://www.w3.org/2000/svg"
   xmlns:svg="http://www.w3.org/2000/svg">
  <defs
     id="defs12" />
  <sodipodi:namedview
     id="namedview10"
     pagecolor="#ffffff"
     bordercolor="#666666"
     borderopacity="1.0"
     inkscape:pageshadow="2"
     inkscape:pageopacity="0.0"
     inkscape:pagecheckerboard="0"
     inkscape:document-units="px"
     showgrid="false"
     inkscape:zoom="1.0765701"
     inkscape:cx="732.41865"
     inkscape:cy="324.64213"
     inkscape:window-width="1920"
     inkscape:window-height="1001"
     inkscape:window-x="-9"
     inkscape:window-y="-9"
     inkscape:window-maximized="1"
     inkscape:current-layer="svg8"
     units="px"
     width="50mm">
    <inkscape:grid
       type="xygrid"
       id="grid566" />
  </sodipodi:namedview>
  <metadata
     id="metadata2">
Created by potrace 1.16, written by Peter Selinger 2001-2019
</metadata>
  <path
     style="fill:#0f2048;fill-opacity:0.996078;stroke:#0f2048;stroke-width:1.1951;stroke-opacity:0.995951"
     d="m 764.77949,475.71651 c -1.70937,-2.51982 -9.35118,-13.0706 -16.98183,-23.4463 C 681.52062,362.15086 615.91941,306.13463 539.58194,274.47682 502.68957,259.17724 477.67674,253.05998 385.15703,236.70998 308.4689,223.15763 280.39366,216.5599 248.81135,204.66837 220.33977,193.94811 197.80185,183.16689 175.58398,169.63924 141.97823,149.17795 94.620273,109.49672 63.49335,75.718454 49.407959,60.433329 17.229878,22.305275 8.2792206,10.294853 L 1.450662,1.1319477 95.921464,0.47552617 C 147.8804,0.11449946 320.51705,-0.24932639 479.55837,-0.33296538 L 768.72451,-0.48506545 V 239.90643 c 0,132.21538 -0.18845,240.39156 -0.41856,240.39156 -0.23011,0 -1.81705,-2.06168 -3.52646,-4.58151 z"
     id="path1804" />
</svg>
